# Blender 4.0.2
# www.blender.org
mtllib hook.mtl
o Cone
v 0.000000 0.385295 0.211594
v 0.183246 0.385295 -0.105797
v -0.183246 0.385295 -0.105797
v 0.241173 0.270551 -0.146698
v -0.237243 0.271040 -0.147326
v 0.000000 0.270161 0.276319
v 0.111635 0.476522 -0.398037
v -0.080090 0.476270 -0.398014
v 0.087084 0.643881 -0.279544
v -0.054584 0.643881 -0.279544
v 0.072614 0.810690 -0.302192
v -0.050046 0.810690 -0.302192
v 0.050255 0.916945 -0.192241
v -0.027678 0.916945 -0.192241
v 0.218839 0.296322 -0.327766
v 0.140234 0.319303 -0.186733
v -0.133684 0.319303 -0.186733
v -0.212286 0.296322 -0.327766
v -0.150324 0.295942 0.365253
v -0.389066 0.295942 -0.048259
v -0.070000 0.315069 0.221482
v -0.221686 0.315069 -0.041247
v -0.275819 0.490448 0.279774
v -0.370460 0.488541 0.096938
v -0.188297 0.631875 0.208496
v -0.258207 0.630022 0.073408
v -0.209696 0.803226 0.163137
v -0.253729 0.802059 0.078051
v -0.131520 0.900909 0.104777
v -0.159497 0.900168 0.050717
v 0.000000 -0.041332 0.168875
v -0.146250 -0.041332 -0.084437
v 0.146250 -0.041332 -0.084437
v 0.172275 0.296720 0.344495
v 0.388220 0.296720 -0.029533
v 0.087034 0.331855 0.207859
v 0.224236 0.331855 -0.029783
v 0.290299 0.473211 0.264160
v 0.378177 0.473659 0.112041
v 0.213105 0.648034 0.196316
v 0.278010 0.648034 0.083897
v 0.254454 0.767128 0.203846
v 0.315202 0.767128 0.098627
v 0.136586 0.915069 0.109760
v 0.175183 0.915069 0.042908
vn -0.0567 0.9116 0.4071
vn 0.3228 0.9216 -0.2156
vn -0.3537 0.9194 -0.1720
vn 0.0015 -0.2138 0.9769
vn -0.0024 -0.6735 0.7392
vn 0.6376 -0.6826 -0.3572
vn 0.8421 -0.1778 -0.5091
vn -0.6402 -0.6799 -0.3576
vn -0.8482 -0.1735 -0.5004
vn 0.5126 0.8575 -0.0452
vn 0.7434 -0.4216 -0.5192
vn 0.6039 0.1038 -0.7903
vn 0.7263 0.1219 0.6765
vn 0.8470 -0.3906 -0.3607
vn 0.1209 -0.3962 0.9102
vn -0.3143 0.8649 -0.3913
vn 0.2128 0.8422 0.4954
vn -0.5670 0.1231 -0.8145
vn -0.7015 0.1044 0.7050
vn -0.4819 0.7441 0.4628
vn -0.6897 0.4281 -0.5840
vn -0.4950 0.8645 -0.0869
vn -0.7408 -0.3890 -0.5477
vn 0.4756 0.7504 0.4591
vn 0.6608 0.4437 -0.6054
vn -0.8432 -0.3677 -0.3922
vn -0.0831 -0.3735 0.9239
vn -0.4287 0.1952 0.8821
vn -0.9695 0.2008 -0.1406
vn 0.8750 0.2628 0.4065
vn 0.6201 0.7619 0.1870
vn -0.3398 0.5099 0.7902
vn 0.3265 0.0934 -0.9406
vn 0.2089 0.7305 -0.6502
vn -0.8147 0.4403 -0.3775
vn 0.3062 0.8572 -0.4142
vn -0.2541 0.0640 -0.9651
vn 0.9891 0.1138 -0.0933
vn -0.1958 0.8490 0.4908
vn -0.9273 0.1419 0.3465
vn 0.4275 0.1122 0.8970
vn 0.2529 0.4192 0.8720
vn -0.6598 0.7300 0.1780
vn -0.1803 0.7170 -0.6733
vn 0.8719 0.3870 -0.3002
vt 0.750000 0.402486
vt 0.882057 0.173757
vt 0.617943 0.173757
vt 0.250000 0.490000
vt 0.250000 0.353830
vt 0.339919 0.198085
vt 0.457846 0.130000
vt 0.339919 0.198085
vt 0.160081 0.198085
vt 0.042154 0.130000
vt 0.882057 0.173757
vt 0.957846 0.130000
vt 0.542154 0.130000
vt 0.617943 0.173757
vt 0.750000 0.490000
vt 0.160081 0.198085
vt 0.250000 0.353830
s 1
f 1/1/1 2/2/2 3/3/3
f 6/4/4 31/5/5 33/6/6 4/7/7
f 4/7/7 33/8/6 32/9/8 5/10/9
f 16/11/10 15/12/11 7/12/12 9/2/13
f 6/4/4 4/7/7 35/7/14 34/4/15
f 1/1/1 3/3/3 22/3/16 21/1/17
f 8/13/18 10/3/19 14/3/20 12/13/21
f 17/14/22 16/11/10 9/2/13 10/3/19
f 15/7/11 18/10/23 8/10/18 7/7/12
f 18/13/23 17/14/22 10/3/19 8/13/18
f 14/3/20 13/2/24 11/12/25 12/13/21
f 7/7/12 8/10/18 12/10/21 11/7/25
f 9/2/13 7/12/12 11/12/25 13/2/24
f 10/3/19 9/2/13 13/2/24 14/3/20
f 5/13/9 3/3/3 17/14/22 18/13/23
f 4/7/7 5/10/9 18/10/23 15/7/11
f 3/3/3 2/2/2 16/11/10 17/14/22
f 2/2/2 4/12/7 15/12/11 16/11/10
f 20/10/26 19/4/27 23/4/28 24/10/29
f 5/10/9 6/4/4 19/4/27 20/10/26
f 6/15/4 1/1/1 21/1/17 19/15/27
f 3/3/3 5/13/9 20/13/26 22/3/16
f 23/15/28 25/1/30 29/1/31 27/15/32
f 19/15/27 21/1/17 25/1/30 23/15/28
f 21/1/17 22/3/16 26/3/33 25/1/30
f 22/3/16 20/13/26 24/13/29 26/3/33
f 29/1/31 30/3/34 28/13/35 27/15/32
f 25/1/30 26/3/33 30/3/34 29/1/31
f 26/3/33 24/13/29 28/13/35 30/3/34
f 24/10/29 23/4/28 27/4/32 28/10/35
f 31/5/5 32/16/8 33/8/6
f 5/10/9 32/16/8 31/17/5 6/4/4
f 35/12/14 37/2/36 41/2/37 39/12/38
f 1/1/1 6/15/4 34/15/15 36/1/39
f 2/2/2 1/1/1 36/1/39 37/2/36
f 4/12/7 2/2/2 37/2/36 35/12/14
f 40/1/40 38/15/41 42/15/42 44/1/43
f 34/4/15 35/7/14 39/7/38 38/4/41
f 36/1/39 34/15/15 38/15/41 40/1/40
f 37/2/36 36/1/39 40/1/40 41/2/37
f 45/2/44 44/1/43 42/15/42 43/12/45
f 41/2/37 40/1/40 44/1/43 45/2/44
f 39/12/38 41/2/37 45/2/44 43/12/45
f 38/4/41 39/7/38 43/7/45 42/4/42
