# Blender 4.0.2
# www.blender.org
mtllib octahedron.mtl
o Cone
v 0.000000 0.004126 -0.276011
v 0.000000 0.004126 0.276011
v 0.000000 0.275119 0.000000
v -0.276011 0.003348 0.000000
v 0.276011 0.003348 0.000000
v 0.000000 -0.267646 0.000000
vn 0.5749 0.5839 -0.5732
vn 0.5749 0.5839 0.5732
vn -0.0000 -1.0000 -0.0000
vn -0.5749 0.5839 0.5732
vn -0.5749 0.5839 -0.5732
vn -0.5732 -0.5839 -0.5749
vn -0.5732 -0.5839 0.5749
vn 0.5732 -0.5839 0.5749
vn 0.5732 -0.5839 -0.5749
vt 0.250000 0.490000
vt 0.250000 0.250000
vt 0.490000 0.250000
vt 0.250000 0.010000
vt 0.750000 0.490000
vt 0.990000 0.250000
vt 0.750000 0.010000
vt 0.510000 0.250000
vt 0.010000 0.250000
s 0
f 1/1/1 3/2/1 5/3/1
f 5/3/2 3/2/2 2/4/2
f 1/5/3 5/6/3 2/7/3 4/8/3
f 2/4/4 3/2/4 4/9/4
f 4/9/5 3/2/5 1/1/5
f 1/1/6 6/2/6 4/3/6
f 4/3/7 6/2/7 2/4/7
f 2/4/8 6/2/8 5/9/8
f 5/9/9 6/2/9 1/1/9
