# Blender 4.0.2
# www.blender.org
mtllib spike.mtl
o Icosphere
v 0.000000 -0.339930 -0.000000
v 0.245973 -0.152022 0.178708
v -0.093952 -0.152022 0.289158
v -0.304042 -0.152022 -0.000000
v -0.093952 -0.152022 -0.289158
v 0.245973 -0.152022 -0.178708
v 0.093952 0.152022 0.289158
v -0.245973 0.152022 0.178708
v -0.245973 0.152022 -0.178708
v 0.093952 0.152022 -0.289158
v 0.304042 0.152022 -0.000000
v 0.000000 0.339930 -0.000000
v 0.114153 -0.499552 0.368144
v 0.385401 -0.499552 0.005199
v -0.314851 -0.499552 0.222329
v -0.314851 -0.499552 -0.222329
v 0.116886 -0.505018 -0.359732
v 0.619168 -0.121309 0.005199
v 0.186391 -0.121306 0.590469
v -0.497860 -0.121305 0.368146
v -0.503971 -0.121305 -0.359734
v 0.186391 -0.121306 -0.590469
v 0.497860 0.121305 0.368146
v -0.191857 0.112461 0.590469
v -0.620858 0.112464 -0.000000
v -0.191857 0.112461 -0.590469
v 0.503971 0.121305 -0.359734
v 0.308739 0.499552 0.230741
v -0.114153 0.499552 0.368144
v -0.385401 0.499552 0.005199
v -0.116886 0.505018 -0.359732
v 0.306006 0.505019 -0.222329
vn 0.7252 -0.5207 -0.4506
vn 0.2868 0.3723 0.8827
vn -0.8617 -0.5051 0.0482
vn -0.2204 -0.5051 0.8345
vn -0.2045 -0.5207 -0.8289
vn 0.9281 0.3723 -0.0000
vn 0.6526 -0.5207 0.5504
vn -0.7508 0.3723 0.5455
vn -0.3121 -0.5051 -0.8047
vn -0.3121 -0.5051 0.8047
vn -0.7508 0.3723 -0.5455
vn 0.6526 -0.5207 -0.5504
vn -0.8617 -0.5051 -0.0482
vn 0.2894 0.3509 -0.8906
vn 0.7255 -0.5051 0.4675
vn 0.0820 -0.9966 -0.0000
vn 0.3743 0.4157 -0.8289
vn 0.3532 0.4230 0.8345
vn 0.0253 -0.9966 0.0780
vn 0.9040 0.4157 0.0998
vn -0.6845 0.4230 0.5937
vn -0.0664 -0.9966 0.0482
vn 0.2048 0.4230 0.8827
vn -0.7900 0.4157 -0.4506
vn -0.0664 -0.9966 -0.0482
vn -0.7762 0.4230 0.4675
vn 0.1844 0.4157 -0.8906
vn 0.0253 -0.9966 -0.0780
vn -0.6845 0.4230 -0.5937
vn 0.9040 0.4157 -0.0998
vn 0.7900 -0.4157 -0.4506
vn 0.0664 0.9966 0.0482
vn -0.2048 -0.4230 0.8827
vn 0.6845 -0.4230 0.5937
vn -0.0324 0.9945 0.0998
vn -0.9027 -0.4230 0.0780
vn -0.3532 -0.4230 0.8345
vn -0.1049 0.9945 -0.0000
vn -0.3532 -0.4230 -0.8345
vn -0.9027 -0.4230 -0.0780
vn -0.0324 0.9945 -0.0998
vn 0.6845 -0.4230 -0.5937
vn -0.1844 -0.4157 -0.8906
vn 0.0664 0.9966 -0.0482
vn 0.7762 -0.4230 0.4675
vn 0.7508 -0.3723 0.5455
vn 0.3218 0.5207 -0.7908
vn -0.6688 0.5051 0.5455
vn -0.2868 -0.3723 0.8827
vn 0.8617 0.5051 0.0482
vn -0.7252 0.5207 -0.4506
vn -0.9281 -0.3723 -0.0000
vn 0.2204 0.5051 0.8345
vn 0.2045 0.5207 -0.8289
vn -0.2894 -0.3509 -0.8906
vn -0.7255 0.5051 0.4675
vn 0.8617 0.5051 -0.0482
vn 0.7576 -0.3509 -0.5504
vn -0.6688 0.5051 -0.5455
vn 0.3121 0.5051 0.8047
vt 0.272728 0.157461
vt 0.181819 0.000000
vt 0.090910 0.157461
vt 0.363637 0.000000
vt 0.454546 0.157461
vt 1.000000 0.157461
vt 0.909091 0.000000
vt 0.818182 0.157461
vt 0.727273 0.000000
vt 0.636364 0.157461
vt 0.545455 0.000000
vt 0.363637 0.314921
vt 0.181819 0.314921
vt 0.909091 0.314921
vt 0.727273 0.314921
vt 0.545455 0.314921
vt 0.000000 0.314921
vt 0.272728 0.472382
vt 0.090910 0.472382
vt 0.818182 0.472382
vt 0.636364 0.472382
vt 0.454546 0.472382
s 0
f 2/1/1 13/2/1 1/2/1
f 3/3/2 13/1/2 2/1/2
f 1/2/3 13/3/3 3/3/3
f 1/4/4 14/1/4 2/1/4
f 6/5/5 14/4/5 1/4/5
f 2/1/6 14/5/6 6/5/6
f 3/6/7 15/7/7 1/7/7
f 4/8/8 15/6/8 3/6/8
f 1/7/9 15/8/9 4/8/9
f 4/8/10 16/9/10 1/9/10
f 5/10/11 16/8/11 4/8/11
f 1/9/12 16/10/12 5/10/12
f 5/10/13 17/11/13 1/11/13
f 6/5/14 17/10/14 5/10/14
f 1/11/15 17/5/15 6/5/15
f 6/5/16 18/1/16 2/1/16
f 11/12/17 18/5/17 6/5/17
f 2/1/18 18/12/18 11/12/18
f 2/1/19 19/3/19 3/3/19
f 7/13/20 19/1/20 2/1/20
f 3/3/21 19/13/21 7/13/21
f 3/6/22 20/8/22 4/8/22
f 8/14/23 20/6/23 3/6/23
f 4/8/24 20/14/24 8/14/24
f 4/8/25 21/10/25 5/10/25
f 9/15/26 21/8/26 4/8/26
f 5/10/27 21/15/27 9/15/27
f 5/10/28 22/5/28 6/5/28
f 10/16/29 22/10/29 5/10/29
f 6/5/30 22/16/30 10/16/30
f 11/12/31 23/1/31 2/1/31
f 7/13/32 23/12/32 11/12/32
f 2/1/33 23/13/33 7/13/33
f 7/13/34 24/3/34 3/3/34
f 8/17/35 24/13/35 7/13/35
f 3/3/36 24/17/36 8/17/36
f 8/14/37 25/8/37 4/8/37
f 9/15/38 25/14/38 8/14/38
f 4/8/39 25/15/39 9/15/39
f 9/15/40 26/10/40 5/10/40
f 10/16/41 26/15/41 9/15/41
f 5/10/42 26/16/42 10/16/42
f 10/16/43 27/5/43 6/5/43
f 11/12/44 27/16/44 10/16/44
f 6/5/45 27/12/45 11/12/45
f 11/12/46 28/13/46 7/13/46
f 12/18/47 28/12/47 11/12/47
f 7/13/48 28/18/48 12/18/48
f 7/13/49 29/17/49 8/17/49
f 12/19/50 29/13/50 7/13/50
f 8/17/51 29/19/51 12/19/51
f 8/14/52 30/15/52 9/15/52
f 12/20/53 30/14/53 8/14/53
f 9/15/54 30/20/54 12/20/54
f 9/15/55 31/16/55 10/16/55
f 12/21/56 31/15/56 9/15/56
f 10/16/57 31/21/57 12/21/57
f 10/16/58 32/12/58 11/12/58
f 12/22/59 32/16/59 10/16/59
f 11/12/60 32/22/60 12/22/60
