# Blender 4.0.2
# www.blender.org
mtllib trigon.mtl
o Cone
v 0.000000 -0.270161 -0.390350
v 0.338053 -0.270161 0.195175
v -0.338053 -0.270161 0.195175
v 0.000000 0.278845 0.000000
vn 0.8160 0.3350 -0.4711
vn -0.0000 -1.0000 -0.0000
vn -0.0000 0.3350 0.9422
vn -0.8160 0.3350 -0.4711
vt 0.250000 0.490000
vt 0.250000 0.250000
vt 0.457846 0.130000
vt 0.750000 0.490000
vt 0.957846 0.130000
vt 0.542154 0.130000
vt 0.042154 0.130000
s 0
f 1/1/1 4/2/1 2/3/1
f 1/4/2 2/5/2 3/6/2
f 2/3/3 4/2/3 3/7/3
f 3/7/4 4/2/4 1/1/4
