# Blender 4.0.2
# www.blender.org
mtllib imago.mtl
o MC
v -0.104398 0.142779 0.070712
v -0.098681 0.145707 -0.018026
v -0.123089 0.092341 0.080589
v -0.107468 0.151372 0.026538
v -0.099852 0.088767 -0.024004
v -0.113947 0.063031 0.031421
v -0.141190 0.086253 -0.018140
v -0.153315 0.112385 0.075359
v -0.141014 0.144408 0.024260
v -0.166027 0.114819 0.027354
v -0.123970 0.127225 -0.006501
v -0.134074 0.134454 0.069090
v -0.166772 0.052168 0.069352
v -0.140965 0.044097 0.009323
v -0.140947 0.041114 0.054074
v -0.154859 0.058140 -0.002404
v -0.177634 0.068033 0.061627
v -0.179452 0.058664 0.028225
v -0.224090 -0.035090 0.069002
v -0.210436 -0.064694 0.024710
v -0.206401 -0.065067 0.061771
v -0.224675 -0.049270 0.004532
v -0.242945 -0.029981 0.061422
v -0.245339 -0.026630 0.031586
v -0.080246 -0.085105 0.050446
v -0.041644 0.145295 0.085148
v -0.065566 -0.076404 -0.038431
v -0.060890 0.145559 -0.027128
v 0.000000 -0.076754 0.062363
v 0.000000 0.142925 0.085666
v -0.083555 0.012093 0.079122
v -0.087716 -0.082358 0.002047
v -0.072271 0.160548 0.019752
v -0.000000 -0.064295 -0.057288
v -0.000000 0.148488 -0.038786
v -0.000000 0.172282 -0.015369
v -0.096620 -0.005007 0.004548
v 0.000000 0.023126 0.088788
v -0.000000 0.161640 -0.023933
v -0.041171 0.171734 0.021764
v 0.000000 0.199774 0.062553
v -0.034171 0.184650 0.016900
v -0.032004 0.202334 0.012088
v 0.000000 0.219070 0.058402
v -0.000000 0.192276 -0.024390
v -0.085510 0.146367 0.073719
v -0.082792 0.145177 -0.020969
v -0.085949 0.068336 0.074253
v -0.086341 0.157658 0.025443
v -0.091996 0.084807 -0.031710
v -0.097046 0.047876 0.029882
v -0.027086 0.199906 0.049407
v -0.027362 0.217541 0.045857
v -0.036958 0.168825 0.074801
v -0.081374 -0.037306 0.069465
v -0.073776 -0.026604 -0.042609
v -0.000000 -0.002737 -0.063028
v -0.088459 -0.046623 0.002708
v 0.000000 -0.021138 0.080179
v -0.069942 0.094781 -0.037099
v -0.078141 0.008406 -0.041792
v -0.086540 0.053942 -0.034322
v -0.000000 0.034858 -0.065331
v -0.000000 0.088706 -0.051120
v -0.049367 0.261216 0.032024
v -0.040746 0.356651 0.052486
v -0.036550 0.232710 -0.040119
v -0.038217 0.352715 -0.045094
v 0.000000 0.253871 0.059182
v -0.000000 0.283523 -0.065036
v 0.000000 0.371611 0.059323
v -0.052320 0.290880 0.052232
v -0.043340 0.232686 -0.012447
v -0.056343 0.349170 0.008516
v -0.045420 0.271240 -0.051602
v -0.000000 0.214190 -0.062233
v -0.000000 0.362037 -0.056027
v -0.058335 0.308249 -0.000636
v 0.000000 0.321171 0.082459
v -0.046575 0.301875 -0.050353
v 0.000000 0.286228 0.079028
v -0.000000 0.266441 -0.077420
v -0.048898 0.320960 0.056752
v -0.000000 0.207987 -0.026215
v 0.000000 0.385033 0.002159
v -0.056060 0.308181 0.028319
v -0.054195 0.270559 -0.004857
v -0.055084 0.265447 0.012687
v -0.067197 0.301673 0.024055
v -0.063536 0.270872 0.013251
v -0.031170 0.249643 0.041490
v -0.020218 0.369547 0.056993
v -0.021779 0.219648 -0.051188
v -0.046860 0.324619 -0.051864
v -0.024454 0.320768 0.074049
v -0.030356 0.286344 0.070716
v -0.025164 0.268654 -0.068841
v -0.000000 0.330126 -0.067191
v -0.032863 0.223030 -0.002902
v -0.036512 0.377334 -0.001759
v -0.058621 0.324596 0.004112
v 0.000000 0.348759 0.077302
v -0.045160 0.340126 0.057459
v -0.021226 0.348337 0.073297
v 0.104398 0.142779 0.070712
v 0.098681 0.145707 -0.018026
v 0.123089 0.092341 0.080589
v 0.107468 0.151372 0.026538
v 0.099852 0.088767 -0.024004
v 0.113947 0.063031 0.031421
v 0.141190 0.086253 -0.018140
v 0.153315 0.112385 0.075359
v 0.141014 0.144408 0.024260
v 0.166027 0.114819 0.027354
v 0.123970 0.127225 -0.006501
v 0.134074 0.134454 0.069090
v 0.166772 0.052168 0.069352
v 0.140965 0.044097 0.009323
v 0.140947 0.041114 0.054074
v 0.154859 0.058140 -0.002404
v 0.177634 0.068033 0.061627
v 0.179452 0.058664 0.028225
v 0.224090 -0.035090 0.069002
v 0.210436 -0.064694 0.024710
v 0.206401 -0.065067 0.061771
v 0.224675 -0.049270 0.004532
v 0.242945 -0.029981 0.061422
v 0.245339 -0.026630 0.031586
v 0.080246 -0.085105 0.050446
v 0.041645 0.145295 0.085148
v 0.065566 -0.076404 -0.038431
v 0.060890 0.145559 -0.027128
v 0.083555 0.012093 0.079122
v 0.087716 -0.082358 0.002047
v 0.072271 0.160548 0.019752
v 0.096620 -0.005007 0.004548
v 0.041171 0.171734 0.021764
v 0.034171 0.184650 0.016900
v 0.032004 0.202334 0.012088
v 0.085510 0.146367 0.073719
v 0.082792 0.145177 -0.020969
v 0.085949 0.068336 0.074253
v 0.086341 0.157658 0.025443
v 0.091996 0.084807 -0.031710
v 0.097046 0.047876 0.029882
v 0.027086 0.199906 0.049407
v 0.027362 0.217541 0.045857
v 0.036958 0.168825 0.074801
v 0.081374 -0.037306 0.069465
v 0.073776 -0.026604 -0.042609
v 0.088459 -0.046623 0.002708
v 0.069942 0.094781 -0.037099
v 0.078141 0.008406 -0.041792
v 0.086540 0.053942 -0.034322
v 0.049367 0.261216 0.032024
v 0.040746 0.356651 0.052486
v 0.036550 0.232710 -0.040119
v 0.038217 0.352715 -0.045094
v 0.052320 0.290880 0.052232
v 0.043340 0.232686 -0.012447
v 0.056343 0.349170 0.008516
v 0.045420 0.271240 -0.051602
v 0.058335 0.308249 -0.000636
v 0.046575 0.301875 -0.050353
v 0.048898 0.320960 0.056752
v 0.056060 0.308181 0.028319
v 0.054195 0.270559 -0.004857
v 0.055084 0.265447 0.012687
v 0.067197 0.301673 0.024055
v 0.063536 0.270872 0.013251
v 0.031170 0.249643 0.041490
v 0.020218 0.369547 0.056993
v 0.021779 0.219648 -0.051188
v 0.046860 0.324619 -0.051864
v 0.024454 0.320768 0.074049
v 0.030356 0.286344 0.070716
v 0.025164 0.268654 -0.068841
v 0.032863 0.223030 -0.002902
v 0.036512 0.377334 -0.001759
v 0.058621 0.324596 0.004112
v 0.045160 0.340126 0.057459
v 0.021226 0.348337 0.073297
vn -0.0340 -0.1780 0.9835
vn -0.1328 0.6771 0.7238
vn -0.3701 0.6756 0.6376
vn -0.5922 0.3641 0.7188
vn -0.4021 -0.2751 -0.8733
vn -0.4630 -0.0355 -0.8857
vn -0.4793 0.5164 -0.7097
vn -0.3490 0.6715 -0.6537
vn -0.5756 0.8009 -0.1649
vn -0.2860 0.9574 -0.0385
vn -0.8619 0.4607 -0.2117
vn -0.3616 -0.1626 -0.9180
vn -0.8484 0.4170 -0.3262
vn 0.0521 -0.9912 0.1214
vn 0.6893 -0.5595 0.4603
vn 0.5797 -0.6487 -0.4931
vn -0.7444 0.3104 0.5912
vn 0.0322 -0.1061 0.9938
vn 0.0892 -0.9596 -0.2668
vn -0.4384 -0.4551 -0.7750
vn 0.1783 -0.8751 0.4498
vn -0.9762 0.0375 -0.2136
vn -0.9089 -0.0751 0.4101
vn -0.3459 -0.3322 0.8775
vn -0.0000 -0.0874 0.9962
vn -0.0000 0.2276 0.9738
vn -0.4191 0.3923 0.8188
vn -0.7570 -0.0343 0.6525
vn -0.0000 0.1357 -0.9908
vn -0.9171 0.1843 -0.3535
vn -0.9012 0.2394 -0.3614
vn -0.0000 -0.0347 -0.9994
vn -0.2514 0.6123 -0.7496
vn -0.4492 0.8934 -0.0060
vn -0.6847 0.7088 -0.1699
vn -0.0000 0.7463 -0.6656
vn -0.9687 -0.2465 0.0286
vn -0.7439 -0.0136 -0.6682
vn -0.7530 -0.0081 -0.6580
vn -0.6421 -0.1110 -0.7585
vn -0.6753 -0.0117 -0.7374
vn -0.0000 0.0736 -0.9973
vn -0.0000 -0.0651 -0.9979
vn -0.2654 0.1729 -0.9485
vn -0.0000 0.4967 -0.8679
vn -0.0000 0.1786 -0.9839
vn -0.6533 -0.2413 0.7176
vn -0.9985 -0.0430 -0.0339
vn -0.9842 -0.1094 -0.1395
vn -0.0000 -0.2555 0.9668
vn -0.4463 0.6182 0.6471
vn -0.0000 0.3705 0.9288
vn -0.7592 0.3355 0.5577
vn -0.0000 0.4923 0.8704
vn -0.8015 0.4057 0.4392
vn -0.5021 0.8645 0.0233
vn -0.4500 0.5942 0.6667
vn -0.6768 -0.1550 0.7196
vn -0.5493 0.5912 -0.5905
vn -0.0000 -0.7975 0.6033
vn -0.5746 -0.7063 0.4136
vn -0.7219 -0.6739 -0.1571
vn -0.4653 -0.6615 -0.5882
vn -0.0000 -0.6153 -0.7883
vn -0.3829 0.3478 0.8558
vn -0.3517 0.7878 0.5057
vn -0.7319 0.5189 0.4416
vn -0.8078 0.1949 0.5563
vn -0.8132 -0.0906 0.5749
vn -0.4713 -0.2952 0.8311
vn -0.8538 -0.1567 0.4965
vn -0.8314 -0.4233 0.3599
vn -0.8018 -0.4801 -0.3557
vn -0.8402 -0.5420 -0.0141
vn -0.9501 -0.2018 -0.2380
vn -0.8105 -0.0779 -0.5806
vn -0.9280 0.3722 0.0189
vn -0.9923 0.1235 -0.0069
vn -0.6233 0.5162 -0.5874
vn -0.7329 0.1299 -0.6678
vn -0.9244 0.1938 0.3285
vn -0.8648 -0.4789 0.1510
vn -0.4552 0.0226 -0.8901
vn -0.0000 0.1377 -0.9905
vn -0.0000 -0.7485 -0.6632
vn -0.7612 0.0235 -0.6481
vn -0.0000 0.1495 -0.9888
vn -0.0000 0.2739 -0.9617
vn -0.4370 0.0294 0.8990
vn -0.8424 0.0759 0.5334
vn -0.0000 -0.0504 0.9987
vn -0.0000 -0.6933 -0.7206
vn -0.9198 -0.2562 -0.2973
vn -0.5769 -0.6789 -0.4542
vn -0.0000 0.6660 -0.7460
vn -0.5298 0.8415 -0.1058
vn -0.0000 0.9980 -0.0626
vn -0.0000 0.8432 0.5376
vn -0.9840 0.0693 -0.1639
vn -0.8089 -0.5040 0.3028
vn -0.8528 0.1864 0.4879
vn -0.0000 -0.3227 0.9465
vn -0.0000 0.0260 0.9997
vn -0.0000 0.3766 0.9264
vn -0.0892 -0.9596 -0.2668
vn 0.4384 -0.4551 -0.7750
vn 0.9762 0.0375 -0.2136
vn 0.9089 -0.0751 0.4101
vn 0.3459 -0.3322 0.8775
vn -0.1783 -0.8751 0.4498
vn 0.0340 -0.1780 0.9835
vn 0.5922 0.3641 0.7188
vn 0.3701 0.6756 0.6376
vn 0.1328 0.6771 0.7238
vn 0.4021 -0.2751 -0.8733
vn 0.3490 0.6715 -0.6537
vn 0.4793 0.5164 -0.7097
vn 0.4630 -0.0355 -0.8857
vn 0.2860 0.9574 -0.0385
vn 0.5756 0.8009 -0.1649
vn 0.8619 0.4607 -0.2117
vn 0.8484 0.4170 -0.3262
vn 0.3616 -0.1626 -0.9180
vn -0.5797 -0.6487 -0.4931
vn -0.6893 -0.5595 0.4603
vn -0.0521 -0.9912 0.1214
vn 0.7444 0.3104 0.5912
vn -0.0322 -0.1061 0.9938
vn 0.7570 -0.0343 0.6525
vn 0.4191 0.3923 0.8188
vn 0.9012 0.2394 -0.3614
vn 0.9171 0.1843 -0.3535
vn 0.2514 0.6123 -0.7496
vn 0.6847 0.7088 -0.1699
vn 0.4492 0.8934 -0.0060
vn 0.9687 -0.2465 0.0286
vn 0.7530 -0.0081 -0.6580
vn 0.7439 -0.0136 -0.6682
vn 0.6421 -0.1110 -0.7585
vn 0.6753 -0.0117 -0.7374
vn 0.2654 0.1729 -0.9485
vn 0.6533 -0.2413 0.7176
vn 0.9842 -0.1094 -0.1395
vn 0.9985 -0.0430 -0.0339
vn 0.4463 0.6182 0.6471
vn 0.7592 0.3355 0.5577
vn 0.8015 0.4057 0.4392
vn 0.4500 0.5942 0.6667
vn 0.5021 0.8645 0.0233
vn 0.6768 -0.1550 0.7196
vn 0.5493 0.5912 -0.5905
vn 0.5746 -0.7063 0.4136
vn 0.7219 -0.6739 -0.1571
vn 0.4653 -0.6615 -0.5882
vn 0.3829 0.3478 0.8558
vn 0.8078 0.1949 0.5563
vn 0.7319 0.5189 0.4416
vn 0.3517 0.7878 0.5057
vn 0.8132 -0.0906 0.5749
vn 0.8314 -0.4233 0.3599
vn 0.8538 -0.1567 0.4965
vn 0.4713 -0.2952 0.8311
vn 0.8018 -0.4801 -0.3557
vn 0.8105 -0.0779 -0.5806
vn 0.9501 -0.2018 -0.2380
vn 0.8402 -0.5420 -0.0141
vn 0.9923 0.1235 -0.0069
vn 0.9280 0.3722 0.0189
vn 0.7329 0.1299 -0.6678
vn 0.6233 0.5162 -0.5874
vn 0.8648 -0.4789 0.1510
vn 0.9244 0.1938 0.3285
vn 0.4552 0.0226 -0.8901
vn 0.7612 0.0235 -0.6481
vn 0.8424 0.0759 0.5334
vn 0.4370 0.0294 0.8990
vn 0.9198 -0.2562 -0.2973
vn 0.5769 -0.6789 -0.4542
vn 0.5298 0.8415 -0.1058
vn 0.9840 0.0693 -0.1639
vn 0.8089 -0.5040 0.3028
vn 0.8528 0.1864 0.4879
vt 0.034929 0.811847
vt 0.019140 0.844284
vt 0.009622 0.827803
vt 0.010570 0.809208
vt 0.854366 0.537163
vt 0.868762 0.510854
vt 0.888177 0.530423
vt 0.892229 0.549165
vt 0.404390 0.637592
vt 0.411612 0.617607
vt 0.433870 0.616025
vt 0.433109 0.635292
vt 0.461022 0.635896
vt 0.460081 0.616736
vt 0.463532 0.598222
vt 0.434942 0.595967
vt 0.401214 0.590824
vt 0.407790 0.569840
vt 0.431690 0.562096
vt 0.827531 0.502643
vt 0.820556 0.479713
vt 0.847009 0.488051
vt 0.861385 0.490995
vt 0.453358 0.567193
vt 0.025872 0.772399
vt 0.045669 0.773966
vt 0.065435 0.789536
vt 0.013628 0.776543
vt 0.850467 0.406205
vt 0.866998 0.411489
vt 0.827983 0.403935
vt 0.435445 0.493327
vt 0.453998 0.492318
vt 0.011580 0.702642
vt 0.024051 0.705878
vt 0.043812 0.696068
vt 0.410731 0.488266
vt 0.787801 0.781250
vt 0.787801 0.854551
vt 0.762137 0.855979
vt 0.736375 0.774089
vt 0.583258 0.738672
vt 0.586233 0.767366
vt 0.574610 0.768077
vt 0.571430 0.738896
vt 0.943609 0.127770
vt 0.942606 0.158994
vt 0.922206 0.157213
vt 0.904936 0.122751
vt 0.261730 0.885968
vt 0.224512 0.909535
vt 0.222001 0.890455
vt 0.302142 0.553961
vt 0.304697 0.575697
vt 0.254966 0.590958
vt 0.254966 0.568321
vt 0.298301 0.629503
vt 0.292654 0.661647
vt 0.254966 0.660300
vt 0.254966 0.624008
vt 0.284993 0.830769
vt 0.292944 0.860682
vt 0.245754 0.853840
vt 0.242816 0.827528
vt 0.528114 0.528247
vt 0.528387 0.614684
vt 0.482775 0.616395
vt 0.482775 0.512484
vt 0.787801 0.753548
vt 0.737346 0.743136
vt 0.609676 0.794057
vt 0.623225 0.815410
vt 0.584513 0.813697
vt 0.583355 0.792253
vt 0.926232 0.201600
vt 0.904936 0.216160
vt 0.915541 0.189483
vt 0.588650 0.733027
vt 0.595110 0.768055
vt 0.843639 0.729976
vt 0.995292 0.908863
vt 0.863532 0.887003
vt 0.808142 0.803034
vt 0.571395 0.813117
vt 0.571038 0.792630
vt 0.917968 0.197417
vt 0.950720 0.164038
vt 0.945837 0.194313
vt 0.938416 0.390568
vt 0.911473 0.382797
vt 0.925767 0.336705
vt 0.938416 0.304130
vt 0.955866 0.134683
vt 0.215362 0.862533
vt 0.213533 0.841017
vt 0.290065 0.897675
vt 0.292320 0.863175
vt 0.740596 0.875222
vt 0.778942 0.875222
vt 0.795203 0.916669
vt 0.728435 0.902431
vt 0.777380 0.942017
vt 0.729960 0.933059
vt 0.254966 0.672425
vt 0.787801 0.716653
vt 0.736686 0.711825
vt 0.272048 0.802250
vt 0.241424 0.804673
vt 0.212699 0.810197
vt 0.298277 0.522924
vt 0.254966 0.529635
vt 0.309850 0.604539
vt 0.312706 0.624013
vt 0.306852 0.662231
vt 0.889356 0.558025
vt 0.850598 0.543981
vt 0.816533 0.509750
vt 0.078477 0.794623
vt 0.062627 0.821063
vt 0.025954 0.854097
vt 0.462975 0.647952
vt 0.431872 0.649059
vt 0.401214 0.647391
vt 0.731708 0.288183
vt 0.725397 0.361664
vt 0.659439 0.327718
vt 0.649871 0.274963
vt 0.684796 0.004708
vt 0.708741 0.128897
vt 0.630218 0.129038
vt 0.621254 0.026639
vt 0.327908 0.430432
vt 0.407600 0.436221
vt 0.426200 0.540992
vt 0.294380 0.540911
vt 0.611839 0.714752
vt 0.602650 0.768348
vt 0.470395 0.748107
vt 0.452567 0.683299
vt 0.314710 0.779651
vt 0.294380 0.692988
vt 0.524750 0.515933
vt 0.579631 0.581932
vt 0.523686 0.631049
vt 0.476896 0.532241
vt 0.204840 0.594536
vt 0.140924 0.584159
vt 0.142380 0.445658
vt 0.274986 0.688114
vt 0.272581 0.752570
vt 0.139059 0.761676
vt 0.140353 0.638474
vt 0.721447 0.217451
vt 0.637943 0.218205
vt 0.791255 0.923160
vt 0.704991 0.968082
vt 0.711986 0.706915
vt 0.798727 0.783800
vt 0.159409 0.321848
vt 0.031547 0.282338
vt 0.004708 0.220475
vt 0.103206 0.220475
vt 0.759893 0.697500
vt 0.653637 0.549048
vt 0.751830 0.531972
vt 0.688073 0.384667
vt 0.744253 0.376430
vt 0.435776 0.640565
vt 0.296194 0.628571
vt 0.471114 0.556634
vt 0.602868 0.657659
vt 0.487325 0.610026
vt 0.621255 0.393330
vt 0.448823 0.846742
vt 0.130653 0.358029
vt 0.056544 0.337917
vt 0.250746 0.436243
vt 0.284965 0.382784
vt 0.274986 0.601615
vt 0.786316 0.134334
vt 0.786316 0.218521
vt 0.786316 0.286779
vt 0.269865 0.486356
vt 0.214098 0.455275
vt 0.786316 0.032546
vt 0.786316 0.367014
vt 0.250921 0.835044
vt 0.138105 0.852402
vt 0.548998 0.812126
vt 0.550799 0.791812
vt 0.559746 0.763928
vt 0.563006 0.740756
vt 0.649692 0.684525
vt 0.851759 0.111697
vt 0.835228 0.116980
vt 0.756521 0.129155
vt 0.737968 0.128146
vt 0.782861 0.423654
vt 0.763099 0.413844
vt 0.771982 0.529623
vt 0.796341 0.526984
vt 0.797289 0.545579
vt 0.787772 0.562060
vt 0.847860 0.242654
vt 0.809996 0.254656
vt 0.814049 0.235914
vt 0.833464 0.216346
vt 0.787577 0.273420
vt 0.758858 0.271120
vt 0.758097 0.251854
vt 0.780354 0.253436
vt 0.730944 0.271724
vt 0.731885 0.252565
vt 0.728435 0.234051
vt 0.757024 0.231795
vt 0.790752 0.226653
vt 0.760277 0.197924
vt 0.784177 0.205669
vt 0.855216 0.193542
vt 0.881670 0.185205
vt 0.874694 0.208135
vt 0.840840 0.196487
vt 0.738608 0.203022
vt 0.741477 0.507312
vt 0.761243 0.491742
vt 0.781039 0.490175
vt 0.793283 0.494319
vt 0.874243 0.109427
vt 0.795331 0.420418
vt 0.781235 0.124095
vt 0.839227 0.774089
vt 0.813465 0.855979
vt 0.576636 0.888319
vt 0.564874 0.887051
vt 0.570619 0.858265
vt 0.582134 0.860000
vt 0.905084 0.954985
vt 0.866411 0.960003
vt 0.883682 0.925542
vt 0.904082 0.923760
vt 0.432429 0.862602
vt 0.472157 0.867088
vt 0.469646 0.886168
vt 0.207791 0.553961
vt 0.205236 0.575697
vt 0.211631 0.629503
vt 0.217278 0.661647
vt 0.409165 0.807402
vt 0.451342 0.804162
vt 0.448405 0.830474
vt 0.401214 0.837315
vt 0.654979 0.744166
vt 0.700318 0.728402
vt 0.700318 0.832314
vt 0.654706 0.830603
vt 0.838256 0.743136
vt 0.607842 0.835484
vt 0.581465 0.834955
vt 0.887707 0.881155
vt 0.877016 0.893271
vt 0.866411 0.866594
vt 0.581509 0.894418
vt 0.591037 0.860097
vt 0.921522 0.706915
vt 0.995292 0.775301
vt 0.569230 0.833492
vt 0.879444 0.885337
vt 0.907312 0.888442
vt 0.912196 0.918716
vt 0.339041 0.613495
vt 0.339041 0.527058
vt 0.351690 0.559632
vt 0.365984 0.605725
vt 0.917342 0.948072
vt 0.480625 0.817651
vt 0.478796 0.839167
vt 0.404093 0.874309
vt 0.401838 0.839808
vt 0.413376 0.972206
vt 0.401214 0.944997
vt 0.467982 0.930759
vt 0.451721 0.972206
vt 0.450159 0.905412
vt 0.402739 0.914370
vt 0.838916 0.711825
vt 0.422110 0.778883
vt 0.452735 0.781307
vt 0.481459 0.786831
vt 0.211655 0.522924
vt 0.200082 0.604539
vt 0.197226 0.624013
vt 0.203081 0.662231
vt 0.812869 0.263516
vt 0.851628 0.249472
vt 0.885692 0.215241
vt 0.728435 0.512399
vt 0.744284 0.538839
vt 0.780958 0.571873
vt 0.728992 0.283781
vt 0.760094 0.284887
vt 0.790752 0.283219
vt 0.840924 0.288183
vt 0.922761 0.274962
vt 0.913193 0.327718
vt 0.847236 0.361664
vt 0.887835 0.004708
vt 0.951377 0.026639
vt 0.942414 0.129037
vt 0.863891 0.128896
vt 0.578311 0.004708
vt 0.611839 0.115186
vt 0.480019 0.115268
vt 0.498619 0.010496
vt 0.294380 0.289027
vt 0.453652 0.257574
vt 0.435824 0.322382
vt 0.303569 0.342623
vt 0.611839 0.267263
vt 0.591509 0.353926
vt 0.381469 0.090208
vt 0.429323 0.106516
vt 0.382533 0.205325
vt 0.326588 0.156208
vt 0.076804 0.593190
vt 0.004708 0.685274
vt 0.005757 0.749766
vt 0.934689 0.218204
vt 0.851185 0.217451
vt 0.621254 0.918607
vt 0.621254 0.779046
vt 0.159409 0.119103
vt 0.031547 0.158613
vt 0.851217 0.539423
vt 0.800967 0.379168
vt 0.610025 0.202846
vt 0.470443 0.214841
vt 0.435105 0.130909
vt 0.303351 0.231935
vt 0.418894 0.184301
vt 0.868311 0.381295
vt 0.457396 0.421017
vt 0.130653 0.082922
vt 0.056544 0.103034
vt 0.250746 0.004708
vt 0.284964 0.058167
vt 0.006525 0.598794
vt 0.014067 0.483668
vt 0.070475 0.453766
vt 0.025680 0.832677
vt 0.548998 0.832519
vt 0.555447 0.861085
vt 0.556647 0.884454
vt 0.868311 0.673876
s 1
usemtl suit
f 3/1/1 1/2/2 12/3/3 8/4/4
f 5/5/5 7/6/6 11/7/7 2/8/8
f 2/9/8 11/10/7 9/11/9 4/12/10
f 1/13/2 4/12/10 9/11/9 12/14/3
f 8/15/4 12/14/3 9/11/9 10/16/11
f 7/17/6 10/16/11 9/11/9 11/10/7
f 10/16/11 7/17/6 16/18/12 18/19/13
f 5/5/5 6/20/14 15/21/15 14/22/16
f 7/6/6 5/5/5 14/22/16 16/23/12
f 10/16/11 18/19/13 17/24/17 8/15/4
f 3/1/1 13/25/18 15/26/15 6/27/14
f 8/4/4 17/28/17 13/25/18 3/1/1
f 16/23/12 14/22/16 20/29/19 22/30/20
f 14/22/16 15/21/15 21/31/21 20/29/19
f 18/19/13 24/32/22 23/33/23 17/24/17
f 17/28/17 23/34/23 19/35/24 13/25/18
f 13/25/18 19/35/24 21/36/21 15/26/15
f 18/19/13 16/18/12 22/37/20 24/32/22
f 38/38/25 30/39/26 26/40/27 31/41/28
f 36/42/29 42/43/30 43/44/31 45/45/32
f 28/46/33 33/47/34 40/48/35 39/49/36
f 51/50/37 50/51/38 62/52/39
f 56/53/40 61/54/41 63/55/42 57/56/43
f 60/57/44 28/58/33 35/59/45 64/60/46
f 55/61/47 31/62/28 37/63/48 58/64/49
f 31/65/28 26/66/27 33/67/34 37/68/48
f 59/69/50 38/38/25 31/41/28 55/70/47
f 54/71/51 30/72/26 41/73/52 52/74/53
f 26/75/27 30/76/26 54/77/51
f 39/78/36 40/79/35 42/43/30 36/42/29
f 44/80/54 45/81/32 43/82/31 53/83/55
f 52/74/53 41/73/52 44/84/54 53/85/55
f 26/86/27 33/47/34 49/87/56 46/88/57
f 26/89/27 46/90/57 48/91/58 31/92/28
f 33/47/34 28/46/33 47/93/59 49/87/56
f 58/64/49 37/63/48 61/94/41 56/95/40
f 48/96/58 51/50/37 37/63/48 31/97/28
f 47/98/59 50/99/38 51/100/37 49/101/56
f 48/102/58 46/103/57 49/101/56 51/100/37
f 42/43/30 52/74/53 53/85/55 43/44/31
f 40/79/35 54/71/51 52/74/53 42/43/30
f 33/47/34 26/75/27 54/77/51 40/48/35
f 35/59/45 28/58/33 39/104/36
f 29/105/60 59/69/50 55/70/47 25/106/61
f 25/107/61 55/61/47 58/64/49 32/108/62
f 32/108/62 58/64/49 56/95/40 27/109/63
f 27/110/63 56/53/40 57/56/43 34/111/64
f 62/112/39 50/113/38 60/57/44 61/54/41
f 60/57/44 64/60/46 63/55/42 61/54/41
f 28/58/33 60/57/44 50/113/38 47/114/59
f 37/63/48 51/50/37 62/52/39 61/94/41
f 47/115/59 50/116/38 5/5/5 2/8/8
f 50/116/38 51/117/37 6/20/14 5/5/5
f 51/118/37 48/119/58 3/1/1 6/27/14
f 48/119/58 46/120/57 1/2/2 3/1/1
f 46/121/57 49/122/56 4/12/10 1/13/2
f 49/122/56 47/123/59 2/9/8 4/12/10
f 69/189/91 91/190/69 53/85/55 44/84/54
f 91/190/69 99/191/93 43/44/31 53/85/55
f 99/191/93 84/192/92 45/45/32 43/44/31
f 124/194/105 126/195/106 128/196/107 127/197/108 123/198/109 125/199/110
f 107/200/111 112/201/112 116/202/113 105/203/114
f 109/204/115 106/205/116 115/206/117 111/207/118
f 106/208/116 108/209/119 113/210/120 115/211/117
f 105/212/114 116/213/113 113/210/120 108/209/119
f 112/214/112 114/215/121 113/210/120 116/213/113
f 111/216/118 115/211/117 113/210/120 114/215/121
f 114/215/121 122/217/122 120/218/123 111/216/118
f 109/204/115 118/219/124 119/220/125 110/221/126
f 111/207/118 120/222/123 118/219/124 109/204/115
f 114/215/121 112/214/112 121/223/127 122/217/122
f 107/200/111 110/224/126 119/225/125 117/226/128
f 112/201/112 107/200/111 117/226/128 121/227/127
f 120/222/123 126/195/106 124/194/105 118/219/124
f 118/219/124 124/194/105 125/228/110 119/220/125
f 122/217/122 121/223/127 127/197/108 128/196/107
f 121/227/127 117/226/128 123/198/109 127/229/108
f 117/226/128 119/225/125 125/199/110 123/198/109
f 122/217/122 128/196/107 126/230/106 120/218/123
f 38/38/25 133/231/129 130/232/130 30/39/26
f 36/233/29 45/234/32 139/235/131 138/236/132
f 132/237/133 39/238/36 137/239/134 135/240/135
f 145/241/136 154/242/137 144/243/138
f 150/244/139 57/56/43 63/55/42 153/245/140
f 152/246/141 64/60/46 35/59/45 132/247/133
f 149/248/142 151/249/143 136/250/144 133/251/129
f 133/252/129 136/253/144 135/254/135 130/255/130
f 59/69/50 149/256/142 133/231/129 38/38/25
f 148/257/145 146/258/146 41/73/52 30/72/26
f 130/259/130 148/260/145 30/261/26
f 39/262/36 36/233/29 138/236/132 137/263/134
f 44/80/54 147/264/147 139/265/131 45/81/32
f 146/258/146 147/266/147 44/84/54 41/73/52
f 130/267/130 140/268/148 143/269/149 135/240/135
f 130/270/130 133/271/129 142/272/150 140/273/148
f 135/240/135 143/269/149 141/274/151 132/237/133
f 151/249/143 150/275/139 153/276/140 136/250/144
f 142/277/150 133/278/129 136/250/144 145/241/136
f 141/279/151 143/280/149 145/281/136 144/282/138
f 142/283/150 145/281/136 143/280/149 140/284/148
f 138/236/132 139/235/131 147/266/147 146/258/146
f 137/263/134 138/236/132 146/258/146 148/257/145
f 135/240/135 137/239/134 148/260/145 130/259/130
f 35/59/45 39/104/36 132/247/133
f 29/105/60 129/285/152 149/256/142 59/69/50
f 129/286/152 134/287/153 151/249/143 149/248/142
f 134/287/153 131/288/154 150/275/139 151/249/143
f 131/289/154 34/111/64 57/56/43 150/244/139
f 154/290/137 153/245/140 152/246/141 144/291/138
f 152/246/141 153/245/140 63/55/42 64/60/46
f 132/247/133 141/292/151 144/291/138 152/246/141
f 136/250/144 153/276/140 154/242/137 145/241/136
f 141/293/151 106/205/116 109/204/115 144/294/138
f 144/294/138 109/204/115 110/221/126 145/295/136
f 145/296/136 110/224/126 107/200/111 142/297/150
f 142/297/150 107/200/111 105/203/114 140/298/148
f 140/299/148 105/212/114 108/209/119 143/300/149
f 143/300/149 108/209/119 106/208/116 141/301/151
f 69/189/91 44/84/54 147/266/147 171/350/159
f 171/350/159 147/266/147 139/235/131 178/351/177
f 178/351/177 139/235/131 45/234/32 84/352/92
f 25/106/61 32/108/62 27/110/63 34/111/64 131/288/154 134/287/153 129/285/152 29/105/60
f 20/29/19 21/36/21 19/35/24 23/33/23 24/32/22 22/30/20
usemtl head
f 104/124/65 92/125/66 66/126/67 103/127/68
f 91/128/69 96/129/70 72/130/71 65/131/72
f 67/132/73 73/133/74 87/134/75 75/135/76
f 103/136/68 66/137/67 74/138/77 101/139/78
f 101/139/78 74/138/77 68/140/79 94/141/80
f 65/142/72 72/143/71 86/144/81 88/145/82
f 97/146/83 82/147/84 76/148/85
f 80/149/86 94/150/80 98/151/87 70/152/88
f 73/133/74 88/145/82 87/134/75
f 96/129/70 95/153/89 83/154/90 72/130/71
f 97/146/83 70/152/88 82/147/84
f 91/155/69 69/156/91 84/157/92 99/158/93
f 99/159/93 93/160/94 76/161/85 84/162/92
f 77/163/95 100/164/96 85/165/97
f 100/164/96 92/166/66 71/167/98 85/165/97
f 87/134/75 78/168/99 80/169/86 75/135/76
f 87/134/75 88/145/82 90/170/100
f 72/143/71 83/171/90 78/168/99 86/144/81
f 73/133/74 65/142/72 88/145/82
f 89/172/101 78/168/99 87/134/75 90/170/100
f 86/144/81 78/168/99 89/172/101
f 88/145/82 86/144/81 89/172/101 90/170/100
f 66/173/67 92/166/66 100/164/96
f 68/140/79 74/138/77 100/174/96
f 73/175/74 67/176/73 93/160/94 99/159/93
f 65/177/72 73/175/74 99/159/93 91/178/69
f 75/179/76 80/149/86 70/152/88 97/146/83
f 81/180/102 79/181/103 95/153/89 96/129/70
f 79/181/103 102/182/104 104/124/65 95/153/89
f 67/183/73 75/179/76 97/146/83 93/184/94
f 69/185/91 81/180/102 96/129/70 91/128/69
f 102/182/104 71/186/98 92/125/66 104/124/65
f 94/150/80 68/187/79 77/188/95 98/151/87
f 78/168/99 101/139/78 94/141/80 80/169/86
f 83/171/90 103/136/68 101/139/78 78/168/99
f 95/153/89 104/124/65 103/127/68 83/154/90
f 74/138/77 66/137/67 100/174/96
f 77/163/95 68/193/79 100/164/96
f 182/302/155 181/303/156 156/304/157 172/305/158
f 171/306/159 155/307/160 159/308/161 176/309/162
f 157/310/163 162/311/164 167/312/165 160/313/166
f 181/314/156 180/315/167 161/316/168 156/317/157
f 180/315/167 174/318/169 158/319/170 161/316/168
f 155/320/160 168/321/171 166/322/172 159/323/161
f 76/148/85 82/147/84 177/324/173
f 164/325/174 70/152/88 98/151/87 174/326/169
f 160/313/166 167/312/165 168/321/171
f 176/309/162 159/308/161 165/327/175 175/328/176
f 177/324/173 82/147/84 70/152/88
f 171/329/159 178/330/177 84/157/92 69/156/91
f 178/331/177 84/162/92 76/161/85 173/332/178
f 77/163/95 85/165/97 179/333/179
f 179/333/179 85/165/97 71/167/98 172/334/158
f 167/312/165 162/311/164 164/335/174 163/336/180
f 167/312/165 170/337/181 168/321/171
f 159/323/161 166/322/172 163/336/180 165/338/175
f 160/313/166 168/321/171 155/320/160
f 169/339/182 170/337/181 167/312/165 163/336/180
f 166/322/172 169/339/182 163/336/180
f 168/321/171 170/337/181 169/339/182 166/322/172
f 156/340/157 179/333/179 172/334/158
f 158/319/170 179/341/179 161/316/168
f 160/342/166 178/331/177 173/332/178 157/343/163
f 155/344/160 171/345/159 178/331/177 160/342/166
f 162/346/164 177/324/173 70/152/88 164/325/174
f 81/180/102 176/309/162 175/328/176 79/181/103
f 79/181/103 175/328/176 182/302/155 102/182/104
f 157/347/163 173/348/178 177/324/173 162/346/164
f 69/185/91 171/306/159 176/309/162 81/180/102
f 102/182/104 182/302/155 172/305/158 71/186/98
f 174/326/169 98/151/87 77/188/95 158/349/170
f 163/336/180 164/335/174 174/318/169 180/315/167
f 165/338/175 163/336/180 180/315/167 181/314/156
f 175/328/176 165/327/175 181/303/156 182/302/155
f 161/316/168 179/341/179 156/317/157
f 77/163/95 179/333/179 158/353/170
f 93/184/94 97/146/83 76/148/85
f 173/348/178 76/148/85 177/324/173
o hair
v -0.070809 0.263460 0.061606
v -0.052467 0.366596 0.066958
v -0.045632 0.369467 -0.048359
v -0.009102 0.274822 0.095274
v -0.006018 0.359043 -0.072165
v -0.006560 0.383645 0.079006
v -0.071363 0.295115 0.066092
v -0.065426 0.240449 -0.040402
v -0.064066 0.376327 -0.005699
v -0.051141 0.307489 -0.060332
v -0.001930 0.382801 -0.056071
v -0.078313 0.341604 -0.013708
v -0.001865 0.338752 0.095989
v -0.049824 0.342084 -0.062539
v -0.006415 0.308170 0.095348
v -0.071814 0.283730 -0.033096
v -0.063339 0.334684 0.073271
v -0.002365 0.391413 -0.026082
v -0.077484 0.267743 0.013469
v -0.068415 0.372583 0.039177
v -0.083283 0.334649 0.036565
v -0.086809 0.285603 0.021388
v -0.002078 0.397654 0.032608
v -0.081842 0.208804 0.054662
v -0.070649 0.242372 -0.005113
v -0.016615 0.228766 0.097763
v -0.094861 0.208552 0.020752
v -0.024532 0.333796 -0.079279
v -0.006648 0.337932 -0.083632
v -0.078578 0.224761 0.064741
v -0.033543 0.260858 0.087690
v -0.027327 0.377989 0.074558
v -0.033580 0.233217 0.094263
v -0.025981 0.379354 -0.052883
v -0.034940 0.336954 0.087780
v -0.034559 0.297114 0.080573
v -0.027565 0.356224 -0.069845
v -0.014519 0.394175 -0.010188
v -0.027411 0.395979 0.037306
v 0.070520 0.269888 0.061386
v 0.049711 0.365589 0.065363
v 0.038247 0.371743 -0.048224
v 0.069753 0.294098 0.068338
v 0.070565 0.223287 -0.026229
v 0.057319 0.375891 -0.012576
v 0.048396 0.301717 -0.054549
v 0.074190 0.338160 -0.008606
v 0.046625 0.347597 -0.054424
v 0.068521 0.275504 -0.035141
v 0.059720 0.334064 0.072090
v 0.073044 0.266693 0.011331
v 0.061309 0.371757 0.039267
v 0.078009 0.332567 0.036752
v 0.081802 0.293011 0.021002
v 0.087699 0.212983 0.058749
v 0.073286 0.244076 0.007730
v -0.001912 0.225223 0.097147
v 0.097119 0.212385 0.021398
v 0.022126 0.337491 -0.075710
v -0.002344 0.339221 -0.084932
v 0.070083 0.234647 0.053175
v 0.024675 0.265651 0.085530
v 0.037545 0.375477 0.073572
v 0.037635 0.228894 0.091262
v 0.016816 0.379745 -0.052256
v 0.031211 0.336954 0.087780
v 0.030830 0.297114 0.080573
v 0.021707 0.356120 -0.068219
v 0.015366 0.397234 -0.010109
v 0.023682 0.395979 0.037306
v 0.013442 0.111730 0.115943
v 0.066461 0.142876 0.103394
v 0.006392 0.146173 0.112277
v 0.045959 0.324731 -0.060193
v 0.027361 0.335746 -0.073507
v -0.045673 0.324299 -0.071437
v -0.027675 0.333125 -0.074905
v -0.051633 0.279076 -0.061676
v -0.064146 0.263510 -0.044546
v -0.036700 0.256739 -0.073552
v -0.055027 0.257327 -0.061033
v 0.046000 0.280828 -0.060602
v 0.059671 0.265767 -0.042772
v 0.030649 0.258115 -0.069927
v 0.047445 0.254736 -0.061140
v 0.058121 0.345913 -0.049428
v 0.073126 0.347035 -0.017577
v 0.069378 0.301273 -0.048486
v 0.079732 0.297638 -0.030934
v 0.060107 0.321751 -0.046923
v 0.073791 0.322243 -0.019673
v 0.069382 0.276224 -0.053758
v 0.074533 0.277344 -0.044131
v -0.066368 0.343971 -0.043719
v -0.078079 0.349785 -0.018132
v -0.075198 0.309062 -0.048211
v -0.086294 0.313192 -0.022533
v -0.066508 0.276038 -0.066804
v -0.081014 0.289573 -0.045426
v 0.126169 0.161463 0.044318
v 0.106215 0.185888 0.065450
v 0.097283 0.202152 0.012304
v 0.086339 0.163691 -0.012661
v 0.085075 0.258829 -0.040437
v 0.094053 0.286260 -0.032994
v 0.092784 0.313861 -0.029731
v 0.078856 0.305383 -0.047997
v -0.082287 0.169970 -0.048593
v -0.042727 0.118454 0.110495
v -0.077223 0.153365 0.093532
v -0.023397 0.147640 0.112624
v 0.041261 0.391143 -0.044306
v 0.051970 0.394659 -0.034660
v 0.031141 0.407314 -0.026729
v 0.022541 0.404490 -0.034476
v -0.133711 0.163794 0.027204
v -0.103330 0.184573 0.055386
v -0.087000 0.193098 -0.023568
v -0.088569 0.263405 -0.043572
v -0.099141 0.286173 -0.038926
v -0.092683 0.312915 -0.040297
v -0.081777 0.303835 -0.058762
v -0.044757 0.389180 -0.041724
v -0.050196 0.398720 -0.030056
v -0.031027 0.410162 -0.027240
v -0.031146 0.402705 -0.033715
vn -0.3662 0.1165 0.9232
vn -0.3324 0.6554 0.6782
vn -0.5803 0.5265 0.6213
vn -0.6660 0.1283 0.7348
vn -0.4344 0.1228 0.8923
vn -0.4185 -0.0148 0.9081
vn -0.7473 -0.0681 0.6609
vn -0.7951 0.0518 0.6043
vn -0.9695 0.0012 0.2450
vn -0.9930 -0.1008 0.0623
vn -0.9643 0.1883 0.1864
vn -0.7313 0.6479 0.2130
vn -0.6972 0.6760 -0.2384
vn -0.9267 0.2255 -0.3005
vn -0.6198 0.6165 -0.4856
vn -0.6487 0.2993 -0.6997
vn -0.3287 0.4623 -0.8235
vn -0.3161 0.7822 -0.5368
vn 0.0027 0.7990 -0.6013
vn 0.0040 0.5212 -0.8534
vn -0.9219 -0.0250 -0.3867
vn -0.8367 0.0455 -0.5457
vn -0.0603 0.9886 -0.1378
vn -0.0027 0.9818 -0.1899
vn -0.2787 0.9461 0.1651
vn -0.0261 0.7105 0.7032
vn -0.0246 0.9917 0.1263
vn -0.9606 0.1062 -0.2570
vn -0.9703 0.0048 -0.2418
vn -0.3878 0.1818 0.9037
vn -0.4932 0.2087 0.8445
vn -0.8622 0.4334 0.2623
vn -0.8449 0.4645 0.2652
vn -0.3868 0.2635 -0.8837
vn -0.2222 0.4119 -0.8837
vn -0.2744 0.1605 0.9481
vn -0.0605 0.0986 0.9933
vn -0.0384 -0.0415 0.9984
vn -0.0052 0.1235 0.9923
vn 0.3761 0.0564 0.9249
vn 0.8322 0.0247 0.5539
vn 0.7356 -0.0652 0.6743
vn 0.3529 -0.0594 0.9338
vn 0.9846 0.1099 0.1356
vn 0.9990 -0.0371 0.0257
vn 0.9614 0.2185 0.1675
vn 0.9329 0.2301 -0.2770
vn 0.7219 0.6376 -0.2687
vn 0.7566 0.6274 0.1843
vn 0.7037 0.3029 -0.6427
vn 0.6088 0.5969 -0.5225
vn 0.3738 0.4580 -0.8065
vn 0.2952 0.7589 -0.5805
vn 0.9134 0.0204 -0.4065
vn 0.8069 0.0783 -0.5855
vn 0.6974 0.1444 0.7020
vn 0.3521 0.1053 0.9300
vn 0.0665 0.9943 -0.0832
vn 0.2794 0.9443 0.1740
vn 0.4025 0.6355 0.6589
vn 0.6755 0.4896 0.5513
vn 0.9282 0.1378 -0.3457
vn 0.9641 0.0507 -0.2607
vn 0.3711 0.1750 0.9119
vn 0.5337 0.1559 0.8312
vn 0.8774 0.4585 0.1411
vn 0.8830 0.4485 0.1383
vn 0.2550 0.4718 -0.8440
vn 0.1916 0.1595 0.9684
vn -0.4335 0.2289 0.8716
vn -0.3691 0.2077 0.9059
vn 0.1670 0.1830 0.9688
vn 0.3311 0.2366 0.9134
vn 0.4067 0.2598 0.8758
vn 0.5925 0.2630 -0.7614
vn -0.7736 0.0573 -0.6311
vn -0.7763 0.0557 -0.6279
vn -0.7127 0.0906 -0.6956
vn 0.7233 0.0319 -0.6898
vn 0.7173 0.0345 -0.6959
vn 0.6749 0.0525 -0.7361
vn 0.8435 0.3080 -0.4401
vn 0.8393 0.3201 -0.4394
vn 0.8758 0.2139 -0.4327
vn 0.8786 0.2004 -0.4335
vn 0.8500 0.2774 -0.4478
vn 0.8527 0.2623 -0.4517
vn 0.8683 0.0986 -0.4862
vn -0.8036 0.4081 -0.4332
vn -0.7894 0.4365 -0.4317
vn -0.8475 0.2075 -0.4886
vn -0.8566 0.2368 -0.4585
vn -0.8358 0.1750 -0.5204
vn 0.8119 0.5590 0.1686
vn 0.8545 0.2537 -0.4533
vn 0.6957 0.1545 -0.7015
vn 0.6848 0.1926 -0.7028
vn 0.7229 0.0330 -0.6902
vn 0.4688 0.5792 -0.6668
vn 0.4927 0.5495 -0.6747
vn -0.9073 0.3139 -0.2798
vn -0.2645 0.1721 0.9489
vn -0.7091 0.6489 0.2758
vn -0.1549 0.9710 -0.1819
vn -0.0649 0.9586 -0.2773
vn -0.7183 0.2387 -0.6535
vn -0.7300 0.1718 -0.6615
vn -0.7444 -0.0177 -0.6675
vn -0.4310 0.5844 -0.6876
vn -0.5534 0.5062 -0.6615
vn 0.2482 0.8866 -0.3902
vn 0.0647 0.8474 -0.5269
vt 0.310623 0.438509
vt 0.310471 0.519751
vt 0.265442 0.496629
vt 0.255579 0.433136
vt 0.319026 0.294026
vt 0.307856 0.363233
vt 0.239108 0.358015
vt 0.237845 0.297716
vt 0.616843 0.244213
vt 0.709396 0.252969
vt 0.709345 0.314000
vt 0.622999 0.284406
vt 0.641277 0.378343
vt 0.640341 0.452429
vt 0.555187 0.452965
vt 0.549445 0.382727
vt 0.467929 0.439408
vt 0.446955 0.383710
vt 0.924561 0.781747
vt 0.978439 0.787085
vt 0.978045 0.829330
vt 0.924406 0.819389
vt 0.514745 0.269005
vt 0.454277 0.318559
vt 0.271059 0.744724
vt 0.196687 0.735793
vt 0.213468 0.711581
vt 0.271557 0.711721
vt 0.108961 0.756461
vt 0.028572 0.764619
vt 0.021561 0.722279
vt 0.116834 0.713637
vt 0.715656 0.391516
vt 0.213430 0.711579
vt 0.700897 0.454320
vt 0.504330 0.190870
vt 0.571932 0.197722
vt 0.327074 0.240724
vt 0.231763 0.223356
vt 0.713154 0.146142
vt 0.646457 0.130227
vt 0.913668 0.734384
vt 0.881632 0.769734
vt 0.875506 0.734553
vt 0.879312 0.815032
vt 0.878401 0.782310
vt 0.357721 0.235524
vt 0.361651 0.323577
vt 0.196353 0.824073
vt 0.104529 0.841166
vt 0.040790 0.819421
vt 0.272913 0.781972
vt 0.362832 0.386773
vt 0.368420 0.444924
vt 0.970545 0.748394
vt 0.346230 0.532710
vt 0.082338 0.314094
vt 0.173696 0.322807
vt 0.167440 0.369555
vt 0.096677 0.374131
vt 0.524031 0.715569
vt 0.510964 0.769618
vt 0.418510 0.776511
vt 0.429303 0.729676
vt 0.483429 0.844158
vt 0.566152 0.854408
vt 0.576996 0.929412
vt 0.478934 0.922402
vt 0.660944 0.880880
vt 0.652151 0.929228
vt 0.921164 0.867793
vt 0.975331 0.862710
vt 0.620765 0.739840
vt 0.666789 0.794050
vt 0.148091 0.444128
vt 0.092036 0.449341
vt 0.269443 0.685328
vt 0.198136 0.680133
vt 0.108397 0.668154
vt 0.030114 0.633848
vt 0.411542 0.854833
vt 0.423882 0.917793
vt 0.607298 0.640310
vt 0.541378 0.677307
vt 0.097640 0.240503
vt 0.188641 0.256743
vt 0.425964 0.617038
vt 0.498113 0.605214
vt 0.883314 0.868611
vt 0.879670 0.823156
vt 0.027876 0.239485
vt 0.021561 0.333448
vt 0.210374 0.603720
vt 0.102523 0.586464
vt 0.043019 0.600784
vt 0.272913 0.646824
vt 0.026858 0.396118
vt 0.034396 0.453775
vt 0.919567 0.920362
vt 0.965119 0.901901
vt 0.112021 0.523335
vt 0.037732 0.543342
vt 0.268451 0.082648
vt 0.340306 0.021561
vt 0.021561 0.087512
vt 0.025578 0.021561
vt 0.124043 0.069971
vt 0.875506 0.926400
vt 0.882622 0.881334
vt 0.449531 0.264346
vt 0.487036 0.232049
vt 0.411542 0.225187
vt 0.451266 0.222255
vt 0.643248 0.723039
vt 0.681801 0.755314
vt 0.685786 0.705811
vt 0.718380 0.715994
vt 0.950674 0.690736
vt 0.875506 0.691262
vt 0.877136 0.629759
vt 0.942480 0.631792
vt 0.939695 0.585954
vt 0.883260 0.583243
vt 0.901440 0.534500
vt 0.938396 0.544110
vt 0.930384 0.498104
vt 0.950674 0.497442
vt 0.854339 0.021561
vt 0.938753 0.044185
vt 0.910202 0.097478
vt 0.859208 0.081633
vt 0.905313 0.165365
vt 0.854339 0.152366
vt 0.938493 0.230376
vt 0.892923 0.201749
vt 0.411542 0.556526
vt 0.450363 0.497442
vt 0.527521 0.588368
vt 0.587745 0.522955
vt 0.803484 0.110778
vt 0.758778 0.114633
vt 0.776702 0.065350
vt 0.811217 0.021561
vt 0.789855 0.284476
vt 0.763227 0.282509
vt 0.497567 0.052707
vt 0.545898 0.096830
vt 0.368420 0.079665
vt 0.660780 0.021561
vt 0.715656 0.086720
vt 0.789832 0.329314
vt 0.768447 0.327734
vt 0.811217 0.376545
vt 0.767127 0.373287
vt 0.139206 0.506454
vt 0.804293 0.584521
vt 0.761502 0.579570
vt 0.766033 0.497442
vt 0.797004 0.533353
vt 0.832384 0.760802
vt 0.804412 0.750216
vt 0.824719 0.799772
vt 0.810790 0.787415
vt 0.788934 0.838048
vt 0.761502 0.813387
s 1
usemtl hair
f 217/354/183 214/355/184 184/356/185 199/357/186
f 213/358/187 218/359/188 189/360/189 183/361/190
f 201/362/191 183/363/190 189/364/189 204/365/192
f 203/366/193 202/367/194 191/368/195 194/369/196
f 194/369/196 191/368/195 185/370/197 196/371/198
f 219/372/199 216/373/200 193/374/201 187/375/202
f 198/376/203 194/369/196 196/371/198 192/377/204
f 216/378/200 220/379/205 200/380/206 193/381/201
f 221/382/207 214/383/184 188/384/208 205/385/209
f 204/365/192 203/366/193 194/369/196 198/376/203
f 189/364/189 199/386/186 203/366/193 204/365/192
f 220/379/205 221/382/207 205/385/209 200/387/206
f 199/386/186 184/388/185 202/367/194 203/366/193
f 190/389/210 207/390/211 204/365/192 198/376/203
f 215/391/212 213/358/187 183/361/190 212/392/213
f 206/393/214 183/363/190 201/362/191 209/394/215
f 196/395/198 219/372/199 259/396/216 258/397/216
f 219/372/199 187/375/202 211/398/217 210/399/217
f 208/400/218 186/401/219 213/358/187 215/391/212
f 191/402/195 202/403/194 221/382/207 220/379/205
f 202/403/194 184/404/185 214/383/184 221/382/207
f 185/405/197 191/402/195 220/379/205 216/378/200
f 197/406/220 195/407/221 217/354/183 218/359/188
f 196/395/198 185/408/197 216/373/200 219/372/199
f 186/401/219 197/406/220 218/359/188 213/358/187
f 195/407/221 188/409/208 214/355/184 217/354/183
f 244/410/222 222/411/223 225/412/224 249/413/225
f 233/414/226 236/415/227 225/416/224 222/417/223
f 235/418/228 229/419/229 227/420/230 234/421/231
f 229/419/229 230/422/232 224/423/233 227/420/230
f 250/424/234 187/375/202 193/374/201 247/425/235
f 231/426/236 228/427/237 230/422/232 229/419/229
f 249/413/225 225/412/224 232/428/238 248/429/239
f 247/430/235 193/381/201 200/380/206 251/431/240
f 252/432/241 205/385/209 188/384/208 245/433/242
f 236/415/227 231/426/236 229/419/229 235/418/228
f 225/416/224 236/415/227 235/418/228 232/434/238
f 251/431/240 200/387/206 205/385/209 252/432/241
f 232/434/238 235/418/228 234/421/231 223/435/243
f 226/436/244 231/426/236 236/415/227 238/437/245
f 246/438/246 243/439/247 222/411/223 244/410/222
f 237/440/248 240/441/249 233/414/226 222/417/223
f 187/375/202 250/424/234 241/442/250 242/443/250
f 239/444/251 246/438/246 244/410/222 186/445/219
f 227/446/230 251/431/240 252/432/241 234/447/231
f 234/447/231 252/432/241 245/433/242 223/448/243
f 224/449/233 247/430/235 251/431/240 227/446/230
f 197/450/220 249/413/225 248/429/239 195/451/221
f 230/452/232 250/424/234 247/425/235 224/453/233
f 186/445/219 244/410/222 249/413/225 197/450/220
f 195/451/221 248/429/239 245/454/242 188/455/208
f 215/391/212 212/392/213 292/456/252 291/457/253
f 246/438/246 239/444/251 255/458/254 253/459/255
f 243/439/247 246/438/246 253/459/255 254/460/256
f 250/424/234 230/452/232 256/461/257 257/462/257
f 198/376/203 192/377/204 260/463/258 261/464/259
f 261/464/259 260/463/258 262/465/260 263/466/260
f 228/427/237 231/426/236 265/467/261 264/468/262
f 264/468/262 265/467/261 267/469/263 266/470/263
f 224/471/233 227/472/230 269/473/264 268/474/265
f 272/475/266 273/476/267 271/477/268 270/478/269
f 268/474/265 269/473/264 273/476/267 272/475/266
f 270/478/269 271/477/268 275/479/270 274/480/270
f 191/481/195 185/482/197 276/483/271 277/484/272
f 277/484/272 276/483/271 278/485/273 279/486/274
f 279/486/274 278/485/273 280/487/275 281/488/275
f 240/441/249 237/440/248 283/489/276 282/490/276
f 226/436/244 238/437/245 284/491/277 285/492/277
f 289/493/278 288/494/279 287/495/280 286/496/280
f 294/497/281 295/498/282 288/494/279 289/493/278
f 207/390/211 190/389/210 290/499/283 300/500/283
f 208/400/218 215/391/212 291/457/253 293/501/284
f 206/393/214 209/394/215 298/502/285 299/503/285
f 297/504/286 296/505/287 295/498/282 294/497/281
f 200/506/206 251/507/240 296/505/287 297/504/286
f 223/508/243 245/454/242 248/429/239 232/428/238
f 189/360/189 218/359/188 217/354/183 199/357/186
f 303/509/288 304/510/289 301/511/290 302/512/290
f 306/513/291 305/514/292 304/510/289 303/509/288
f 307/515/293 308/516/294 305/514/292 306/513/291
f 220/517/205 200/518/206 308/516/294 307/515/293
